<?xml version="1.0" encoding="UTF-8"?>
<svg xmlns="http://www.w3.org/2000/svg" xmlns:xlink="http://www.w3.org/1999/xlink" version="1.1" viewBox="0 0 539.9 124.7">
  <defs>
    <style>
      .cls-1 {
        fill: url(#_무제_그라디언트);
      }

      .cls-2 {
        fill: #4c4948;
      }

      .cls-3 {
        fill: url(#_무제_그라디언트_2);
      }
    </style>
    <linearGradient id="_무제_그라디언트" data-name="무제 그라디언트" x1="81.6" y1="1038.7" x2="56.2" y2="1013.2" gradientTransform="translate(0 -944.4)" gradientUnits="userSpaceOnUse">
      <stop offset="0" stop-color="#e9b424"/>
      <stop offset="0" stop-color="#eec618"/>
      <stop offset=".2" stop-color="#f3d80d"/>
      <stop offset=".3" stop-color="#f7e405"/>
      <stop offset=".5" stop-color="#f9eb01"/>
      <stop offset="1" stop-color="#faee00"/>
    </linearGradient>
    <linearGradient id="_무제_그라디언트_2" data-name="무제 그라디언트 2" x1="77" y1="1035.5" x2="7.6" y2="966.1" gradientTransform="translate(0 -944.4)" gradientUnits="userSpaceOnUse">
      <stop offset="0" stop-color="#ee9c4a"/>
      <stop offset="0" stop-color="#ee9f46"/>
      <stop offset=".2" stop-color="#f2bc2c"/>
      <stop offset=".3" stop-color="#f5d219"/>
      <stop offset=".5" stop-color="#f8e10a"/>
      <stop offset=".7" stop-color="#f9eb02"/>
      <stop offset="1" stop-color="#faee00"/>
    </linearGradient>
  </defs>
  <!-- Generator: Adobe Illustrator 28.7.2, SVG Export Plug-In . SVG Version: 1.2.0 Build 154)  -->
  <g>
    <g id="_레이어_1" data-name="레이어_1">
      <g id="_레이어_1-2">
        <g>
          <path class="cls-2" d="M141.2,38.9h21.7v5.9c5.2-4.9,11.9-7.5,19.7-7.5,15.4,0,25.7,10.2,25.7,25.5v18.2c0,3.3,1.7,5.1,5.1,5.1h1.5v21h-6c-14.7,0-22.2-7.1-22.2-21.3v-15.8c0-7.1-4.4-11.8-11.2-11.8s-12.4,4.8-12.4,12v36.8h-21.7V38.9Z"/>
          <path class="cls-2" d="M223.7,73c0-20.3,15.8-35.7,36.9-35.7s36.9,15.4,36.9,35.7-15.9,35.7-36.9,35.7-36.9-15.4-36.9-35.7ZM275.2,73c0-8.4-6.3-14.7-14.6-14.7s-14.7,6.3-14.7,14.7,6.3,14.7,14.7,14.7,14.6-6.3,14.6-14.7Z"/>
          <path class="cls-2" d="M315.9,84.3v-25.7h-9.8v-19.8h5.1c3.9,0,5.9-2,5.9-5.9v-11.8h20.5v17.6h13.9v19.8h-13.9v22.1c0,4.3,2.5,6.6,7,6.6h7v19.8h-10.2c-16.8,0-25.4-7.6-25.4-22.7Z"/>
          <path class="cls-2" d="M362.7,73c0-20.3,15.8-35.7,36.8-35.7s36.9,15.2,36.9,36.1-.1,4.4-.4,6.1h-50.1c2,6.7,7.4,11,14.3,11s10.3-2.4,12.4-5.3h23c-4.9,14-18.8,23.5-36,23.5s-36.9-15.4-36.9-35.7ZM385.9,66.2h27.5c-2-6.6-7.1-10.7-13.9-10.7s-11.5,4.1-13.6,10.7Z"/>
          <path class="cls-2" d="M448.7,18.6c0-7.6,5.7-13.2,13.2-13.2s13.2,5.6,13.2,13.2-5.6,13.1-13.2,13.1-13.2-5.6-13.2-13.1ZM451.1,38.9h21.7v68.2h-21.7V38.9Z"/>
          <path class="cls-2" d="M497.4,84.3v-25.7h-9.8v-19.8h5.1c3.9,0,5.9-2,5.9-5.9v-11.8h20.5v17.6h13.9v19.8h-13.9v22.1c0,4.3,2.5,6.6,7,6.6h7v19.8h-10.2c-16.8,0-25.4-7.6-25.4-22.7Z"/>
        </g>
        <g>
          <path class="cls-1" d="M40.5,117.4c29.9,0,62.8-44.6,62.8-65.5l-46.4,16.2s-16.4,49.3-16.4,49.3Z"/>
          <path class="cls-3" d="M64.5,79.2s7.1,38.2-25.9,38.2H7.6V21.7h95.7v30.2c0,29.1-38.9,27.3-38.9,27.3h.1Z"/>
        </g>
      </g>
    </g>
  </g>
</svg>