<?xml version="1.0" encoding="UTF-8"?>
<svg xmlns="http://www.w3.org/2000/svg" xmlns:xlink="http://www.w3.org/1999/xlink" version="1.1" viewBox="0 0 539.9 124.7">
  <defs>
    <style>
      .cls-1 {
        fill: url(#_무제_그라디언트);
      }

      .cls-2 {
        fill: #4c4948;
      }

      .cls-3 {
        fill: url(#_무제_그라디언트_2);
      }
    </style>
    <linearGradient id="_무제_그라디언트" data-name="무제 그라디언트" x1="85.6" y1="41.3" x2="60.2" y2="66.8" gradientTransform="translate(0 135.6) scale(1 -1)" gradientUnits="userSpaceOnUse">
      <stop offset="0" stop-color="#e9b424"/>
      <stop offset="0" stop-color="#eec618"/>
      <stop offset=".2" stop-color="#f3d80d"/>
      <stop offset=".3" stop-color="#f7e405"/>
      <stop offset=".5" stop-color="#f9eb01"/>
      <stop offset="1" stop-color="#faee00"/>
    </linearGradient>
    <linearGradient id="_무제_그라디언트_2" data-name="무제 그라디언트 2" x1="81" y1="44.6" x2="11.6" y2="114" gradientTransform="translate(0 135.6) scale(1 -1)" gradientUnits="userSpaceOnUse">
      <stop offset="0" stop-color="#ee9c4a"/>
      <stop offset="0" stop-color="#ee9f46"/>
      <stop offset=".2" stop-color="#f2bc2c"/>
      <stop offset=".3" stop-color="#f5d219"/>
      <stop offset=".5" stop-color="#f8e10a"/>
      <stop offset=".7" stop-color="#f9eb02"/>
      <stop offset="1" stop-color="#faee00"/>
    </linearGradient>
  </defs>
  <!-- Generator: Adobe Illustrator 28.7.2, SVG Export Plug-In . SVG Version: 1.2.0 Build 154)  -->
  <g>
    <g id="_레이어_1" data-name="레이어_1">
      <g id="_레이어_1-2" data-name="_레이어_1">
        <g>
          <path class="cls-2" d="M145.2,39h21.9v6c5.3-5,12-7.6,19.9-7.6,15.5,0,26,10.3,26,25.8v18.4c0,3.4,1.8,5.1,5.1,5.1h1.5v21.2h-6.1c-14.9,0-22.4-7.2-22.4-21.5v-16c0-7.2-4.5-11.9-11.4-11.9s-12.6,4.9-12.6,12.2v37.2h-21.9V39.1h0Z"/>
          <path class="cls-2" d="M225.9,73.5c0-20.6,16-36.1,37.3-36.1s37.3,15.5,37.3,36.1-16.1,36.1-37.3,36.1-37.3-15.5-37.3-36.1ZM278,73.5c0-8.5-6.4-14.9-14.7-14.9s-14.9,6.4-14.9,14.9,6.4,14.9,14.9,14.9,14.7-6.4,14.7-14.9Z"/>
          <path class="cls-2" d="M316.5,85v-26h-9.9v-20h5.1c3.9,0,6-2,6-6v-11.9h20.7v17.9h14.1v20h-14.1v22.3c0,4.3,2.6,6.6,7,6.6h7v20h-10.3c-17,0-25.7-7.7-25.7-23h0Z"/>
          <path class="cls-2" d="M361.1,73.5c0-20.6,16-36.1,37.2-36.1s37.3,15.4,37.3,36.5-.1,4.5-.4,6.2h-50.7c2,6.8,7.4,11.1,14.5,11.1s10.4-2.4,12.6-5.4h23.3c-5,14.2-19.1,23.8-36.4,23.8s-37.3-15.5-37.3-36.1h0ZM384.5,66.6h27.8c-2-6.6-7.2-10.8-14-10.8s-11.6,4.2-13.8,10.8Z"/>
          <path class="cls-2" d="M445.4,18.5c0-7.7,5.8-13.4,13.4-13.4s13.4,5.7,13.4,13.4-5.7,13.2-13.4,13.2-13.4-5.7-13.4-13.2ZM447.8,39h21.9v69h-21.9V39h0Z"/>
          <path class="cls-2" d="M491.9,85v-26h-9.9v-20h5.1c3.9,0,6-2,6-6v-11.9h20.7v17.9h14.1v20h-14.1v22.3c0,4.3,2.6,6.6,7,6.6h7v20h-10.3c-17,0-25.7-7.7-25.7-23h0Z"/>
        </g>
        <g>
          <path class="cls-1" d="M44.5,117.4c29.9,0,62.8-44.6,62.8-65.5l-46.4,16.2-16.4,49.3Z"/>
          <path class="cls-3" d="M68.5,79.2s7.1,38.2-25.9,38.2H11.6V21.7h95.7v30.2c0,29.1-38.9,27.3-38.9,27.3h0Z"/>
        </g>
      </g>
    </g>
  </g>
</svg>